<?xml version="1.0" standalone="no"?>
<!DOCTYPE svg PUBLIC "-//W3C//DTD SVG 20010904//EN"
 "http://www.w3.org/TR/2001/REC-SVG-20010904/DTD/svg10.dtd">
<svg version="1.0" xmlns="http://www.w3.org/2000/svg"
 width="1000.000000pt" height="1000.000000pt" viewBox="0 0 1000.000000 1000.000000"
 preserveAspectRatio="xMidYMid meet">
<metadata>
Created by potrace 1.11, written by Peter Selinger 2001-2013
</metadata>
<g transform="translate(0.000000,1000.000000) scale(0.100000,-0.100000)"
fill="#000000" stroke="none">
<path d="M4870 8989 c-2648 -373 -4818 -678 -4821 -679 -8 0 -19 -3418 -19
-5864 l0 -1999 113 -62 c63 -33 118 -60 123 -58 5 1 2186 309 4848 682 2661
374 4840 682 4842 684 3 2 8 1771 12 3931 l7 3927 -111 60 c-78 41 -122 59
-145 58 -19 -1 -2201 -307 -4849 -680z m2522 -771 c-2 -117 -5 -214 -6 -215
-1 -1 -375 -54 -831 -118 -457 -64 -845 -118 -862 -122 l-33 -5 0 -212 0 -211
345 -274 c190 -151 344 -278 343 -283 -5 -13 -700 -818 -707 -818 -3 0 -67 60
-140 134 l-134 135 71 83 c39 46 127 148 195 228 l125 144 -249 198 -249 199
0 311 0 311 -47 -7 c-27 -3 -83 -11 -125 -17 l-78 -11 0 -309 0 -310 -247
-265 c-137 -146 -249 -269 -251 -273 -1 -4 83 -83 188 -176 104 -92 190 -170
190 -172 0 -3 -61 -84 -136 -179 l-136 -174 -66 58 c-530 468 -637 564 -637
571 0 4 156 176 348 381 l347 374 0 208 c0 160 -3 208 -12 208 -7 -1 -388 -54
-845 -118 l-833 -118 0 216 0 215 2208 312 c1214 171 2221 311 2238 312 l31 1
-5 -212z m-662 -3753 c0 -453 2 -525 15 -525 8 0 157 20 332 45 422 59 427 59
528 46 339 -46 591 -293 661 -649 19 -97 18 -289 -2 -392 -77 -406 -399 -768
-769 -864 -33 -8 -1086 -159 -2340 -336 -2407 -338 -2392 -336 -2540 -305
-140 30 -312 134 -401 242 -251 309 -269 766 -45 1147 102 173 226 299 395
402 147 89 217 106 775 184 271 38 495 70 496 72 2 2 -38 195 -88 430 -50 235
-89 429 -86 431 18 16 1193 457 1199 450 4 -4 61 -258 125 -563 65 -305 121
-559 125 -563 4 -5 87 3 185 17 97 14 181 26 186 26 5 0 10 232 11 527 l3 527
610 87 c336 48 613 87 618 88 4 0 7 -235 7 -524z"/>
<path d="M6180 4480 c-63 -9 -154 -23 -202 -30 l-88 -12 0 -234 c0 -204 2
-234 15 -234 20 0 372 48 403 55 l22 5 0 235 c0 218 -1 235 -17 234 -10 -1
-70 -9 -133 -19z"/>
<path d="M4345 4214 c-115 -44 -209 -85 -209 -90 9 -55 89 -421 94 -427 6 -7
396 137 414 154 8 7 -65 385 -83 429 -5 13 -42 2 -216 -66z"/>
<path d="M5123 3281 c-1238 -175 -2276 -326 -2305 -336 -238 -77 -423 -359
-404 -616 16 -221 158 -387 360 -422 62 -10 172 4 2363 312 1667 234 2312 328
2352 343 141 53 256 159 329 304 86 170 85 379 -1 526 -36 62 -128 145 -194
176 -115 52 -18 63 -2500 -287z m2187 -226 l0 -214 -32 -6 c-18 -3 -244 -34
-503 -70 -258 -36 -478 -67 -487 -69 -17 -4 -18 11 -18 213 l0 216 503 72
c276 39 510 71 520 72 16 1 17 -15 17 -214z m-1592 -222 l-3 -218 -475 -66
c-261 -37 -494 -69 -517 -73 l-43 -6 0 215 c0 118 1 215 3 215 1 1 232 34 512
74 281 41 513 74 518 75 4 0 6 -97 5 -216z m-1508 -193 c0 -159 -3 -212 -12
-215 -12 -5 -1000 -145 -1019 -145 -5 0 -9 93 -9 214 l0 214 88 12 c48 7 267
39 487 70 220 32 415 58 433 59 l32 1 0 -210z"/>
</g>
</svg>
